<mxfile host="65bd71144e">
    <diagram id="e-wsPEI6k0sBE3bSaXJ6" name="Page-1">
        <mxGraphModel dx="1580" dy="1229" grid="1" gridSize="10" guides="1" tooltips="1" connect="1" arrows="1" fold="1" page="1" pageScale="1" pageWidth="850" pageHeight="1100" math="0" shadow="0">
            <root>
                <mxCell id="0"/>
                <mxCell id="1" parent="0"/>
                <mxCell id="2" style="edgeStyle=none;curved=1;rounded=0;orthogonalLoop=1;jettySize=auto;html=1;exitX=1;exitY=0.5;exitDx=0;exitDy=0;entryX=0;entryY=0.5;entryDx=0;entryDy=0;fontSize=12;endArrow=open;startSize=14;endSize=14;sourcePerimeterSpacing=8;targetPerimeterSpacing=8;" parent="1" source="3" target="17" edge="1">
                    <mxGeometry relative="1" as="geometry"/>
                </mxCell>
                <mxCell id="3" value="" style="whiteSpace=wrap;html=1;aspect=fixed;" parent="1" vertex="1">
                    <mxGeometry x="110" y="230" width="190" height="190" as="geometry"/>
                </mxCell>
                <mxCell id="4" value="" style="rounded=0;whiteSpace=wrap;html=1;fontSize=16;fillColor=#60a917;strokeColor=#2D7600;fontColor=#ffffff;" parent="1" vertex="1">
                    <mxGeometry x="110" y="190" width="190" height="40" as="geometry"/>
                </mxCell>
                <mxCell id="5" value="&lt;b&gt;instruments&lt;/b&gt;" style="text;strokeColor=none;fillColor=none;html=1;align=center;verticalAlign=middle;whiteSpace=wrap;rounded=0;fontSize=16;" parent="1" vertex="1">
                    <mxGeometry x="170" y="195" width="60" height="30" as="geometry"/>
                </mxCell>
                <mxCell id="6" value="&lt;b&gt;&lt;u&gt;id&lt;/u&gt;&lt;/b&gt;" style="text;strokeColor=none;fillColor=none;html=1;align=center;verticalAlign=middle;whiteSpace=wrap;rounded=0;fontSize=16;strokeWidth=6;" parent="1" vertex="1">
                    <mxGeometry x="110" y="240" width="60" height="30" as="geometry"/>
                </mxCell>
                <mxCell id="7" value="category_id" style="text;strokeColor=none;fillColor=none;html=1;align=center;verticalAlign=middle;whiteSpace=wrap;rounded=0;fontSize=16;" parent="1" vertex="1">
                    <mxGeometry x="140" y="300" width="60" height="30" as="geometry"/>
                </mxCell>
                <mxCell id="8" value="quantity" style="text;strokeColor=none;fillColor=none;html=1;align=center;verticalAlign=middle;whiteSpace=wrap;rounded=0;fontSize=16;" parent="1" vertex="1">
                    <mxGeometry x="130" y="330" width="60" height="30" as="geometry"/>
                </mxCell>
                <mxCell id="9" value="price" style="text;strokeColor=none;fillColor=none;html=1;align=center;verticalAlign=middle;whiteSpace=wrap;rounded=0;fontSize=16;" parent="1" vertex="1">
                    <mxGeometry x="120" y="360" width="60" height="30" as="geometry"/>
                </mxCell>
                <mxCell id="10" value="" style="whiteSpace=wrap;html=1;aspect=fixed;" parent="1" vertex="1">
                    <mxGeometry x="520" y="225" width="190" height="190" as="geometry"/>
                </mxCell>
                <mxCell id="11" value="" style="rounded=0;whiteSpace=wrap;html=1;fontSize=16;fillColor=#60a917;strokeColor=#2D7600;fontColor=#ffffff;" parent="1" vertex="1">
                    <mxGeometry x="520" y="190" width="190" height="40" as="geometry"/>
                </mxCell>
                <mxCell id="12" value="&lt;b&gt;categories&lt;/b&gt;" style="text;strokeColor=none;fillColor=none;html=1;align=center;verticalAlign=middle;whiteSpace=wrap;rounded=0;fontSize=16;gradientColor=default;" parent="1" vertex="1">
                    <mxGeometry x="585" y="195" width="60" height="30" as="geometry"/>
                </mxCell>
                <mxCell id="13" value="name" style="text;strokeColor=none;fillColor=none;html=1;align=center;verticalAlign=middle;whiteSpace=wrap;rounded=0;fontSize=16;" parent="1" vertex="1">
                    <mxGeometry x="120" y="270" width="60" height="30" as="geometry"/>
                </mxCell>
                <mxCell id="14" value="&lt;u&gt;&lt;b&gt;id&lt;/b&gt;&lt;/u&gt;" style="text;strokeColor=none;fillColor=none;html=1;align=center;verticalAlign=middle;whiteSpace=wrap;rounded=0;fontSize=16;" parent="1" vertex="1">
                    <mxGeometry x="525" y="240" width="60" height="30" as="geometry"/>
                </mxCell>
                <mxCell id="15" value="name" style="text;strokeColor=none;fillColor=none;html=1;align=center;verticalAlign=middle;whiteSpace=wrap;rounded=0;fontSize=16;" parent="1" vertex="1">
                    <mxGeometry x="540" y="270" width="60" height="30" as="geometry"/>
                </mxCell>
                <mxCell id="16" style="edgeStyle=none;curved=1;rounded=0;orthogonalLoop=1;jettySize=auto;html=1;exitX=1;exitY=0.5;exitDx=0;exitDy=0;entryX=0;entryY=0.5;entryDx=0;entryDy=0;fontSize=12;endArrow=open;startSize=14;endSize=14;sourcePerimeterSpacing=8;targetPerimeterSpacing=8;" parent="1" source="17" target="10" edge="1">
                    <mxGeometry relative="1" as="geometry"/>
                </mxCell>
                <mxCell id="17" value="" style="ellipse;whiteSpace=wrap;html=1;fontSize=16;fillColor=#0050ef;strokeColor=#001DBC;fontColor=#ffffff;" parent="1" vertex="1">
                    <mxGeometry x="360" y="300" width="110" height="50" as="geometry"/>
                </mxCell>
                <mxCell id="18" value="have" style="text;strokeColor=none;fillColor=none;html=1;align=center;verticalAlign=middle;whiteSpace=wrap;rounded=0;fontSize=16;" parent="1" vertex="1">
                    <mxGeometry x="385" y="310" width="60" height="30" as="geometry"/>
                </mxCell>
                <mxCell id="19" value="1,1" style="text;strokeColor=none;fillColor=none;html=1;align=center;verticalAlign=middle;whiteSpace=wrap;rounded=0;fontSize=16;" parent="1" vertex="1">
                    <mxGeometry x="290" y="300" width="60" height="30" as="geometry"/>
                </mxCell>
                <mxCell id="20" value="0,N" style="text;strokeColor=none;fillColor=none;html=1;align=center;verticalAlign=middle;whiteSpace=wrap;rounded=0;fontSize=16;" parent="1" vertex="1">
                    <mxGeometry x="470" y="280" width="60" height="30" as="geometry"/>
                </mxCell>
                <mxCell id="21" value="" style="whiteSpace=wrap;html=1;aspect=fixed;" parent="1" vertex="1">
                    <mxGeometry x="120" y="640" width="190" height="190" as="geometry"/>
                </mxCell>
                <mxCell id="22" value="" style="rounded=0;whiteSpace=wrap;html=1;fontSize=16;fillColor=#60a917;strokeColor=#2D7600;fontColor=#ffffff;" parent="1" vertex="1">
                    <mxGeometry x="120" y="600" width="190" height="40" as="geometry"/>
                </mxCell>
                <mxCell id="23" style="edgeStyle=none;curved=1;rounded=0;orthogonalLoop=1;jettySize=auto;html=1;exitX=0.5;exitY=0;exitDx=0;exitDy=0;entryX=0.5;entryY=1;entryDx=0;entryDy=0;fontSize=12;endArrow=open;startSize=14;endSize=14;sourcePerimeterSpacing=8;targetPerimeterSpacing=8;" parent="1" source="24" target="31" edge="1">
                    <mxGeometry relative="1" as="geometry"/>
                </mxCell>
                <mxCell id="24" value="&lt;b&gt;admin&lt;/b&gt;" style="text;strokeColor=none;fillColor=none;html=1;align=center;verticalAlign=middle;whiteSpace=wrap;rounded=0;fontSize=16;" parent="1" vertex="1">
                    <mxGeometry x="175" y="605" width="60" height="30" as="geometry"/>
                </mxCell>
                <mxCell id="25" value="&lt;b style=&quot;&quot;&gt;&lt;u style=&quot;&quot;&gt;id&lt;/u&gt;&lt;/b&gt;" style="text;strokeColor=none;fillColor=none;html=1;align=center;verticalAlign=middle;whiteSpace=wrap;rounded=0;fontSize=16;" parent="1" vertex="1">
                    <mxGeometry x="125" y="660" width="60" height="30" as="geometry"/>
                </mxCell>
                <mxCell id="26" value="first_name" style="text;strokeColor=none;fillColor=none;html=1;align=center;verticalAlign=middle;whiteSpace=wrap;rounded=0;fontSize=16;" parent="1" vertex="1">
                    <mxGeometry x="155" y="690" width="60" height="30" as="geometry"/>
                </mxCell>
                <mxCell id="27" value="last_name" style="text;strokeColor=none;fillColor=none;html=1;align=center;verticalAlign=middle;whiteSpace=wrap;rounded=0;fontSize=16;" parent="1" vertex="1">
                    <mxGeometry x="155" y="720" width="60" height="30" as="geometry"/>
                </mxCell>
                <mxCell id="28" value="email" style="text;strokeColor=none;fillColor=none;html=1;align=center;verticalAlign=middle;whiteSpace=wrap;rounded=0;fontSize=16;" parent="1" vertex="1">
                    <mxGeometry x="135" y="750" width="60" height="30" as="geometry"/>
                </mxCell>
                <mxCell id="29" value="password" style="text;strokeColor=none;fillColor=none;html=1;align=center;verticalAlign=middle;whiteSpace=wrap;rounded=0;fontSize=16;" parent="1" vertex="1">
                    <mxGeometry x="145" y="780" width="60" height="30" as="geometry"/>
                </mxCell>
                <mxCell id="30" style="edgeStyle=none;curved=1;rounded=0;orthogonalLoop=1;jettySize=auto;html=1;exitX=0.5;exitY=0;exitDx=0;exitDy=0;entryX=0.5;entryY=1;entryDx=0;entryDy=0;fontSize=12;endArrow=open;startSize=14;endSize=14;sourcePerimeterSpacing=8;targetPerimeterSpacing=8;" parent="1" source="31" target="3" edge="1">
                    <mxGeometry relative="1" as="geometry"/>
                </mxCell>
                <mxCell id="31" value="" style="ellipse;whiteSpace=wrap;html=1;fontSize=16;fillColor=#0050ef;strokeColor=#001DBC;fontColor=#ffffff;" parent="1" vertex="1">
                    <mxGeometry x="145" y="480" width="110" height="50" as="geometry"/>
                </mxCell>
                <mxCell id="32" value="add" style="text;strokeColor=none;fillColor=none;html=1;align=center;verticalAlign=middle;whiteSpace=wrap;rounded=0;fontSize=16;" parent="1" vertex="1">
                    <mxGeometry x="170" y="490" width="60" height="30" as="geometry"/>
                </mxCell>
                <mxCell id="33" value="0,N" style="text;strokeColor=none;fillColor=none;html=1;align=center;verticalAlign=middle;whiteSpace=wrap;rounded=0;fontSize=16;" parent="1" vertex="1">
                    <mxGeometry x="205" y="570" width="60" height="30" as="geometry"/>
                </mxCell>
                <mxCell id="34" value="1,1" style="text;strokeColor=none;fillColor=none;html=1;align=center;verticalAlign=middle;whiteSpace=wrap;rounded=0;fontSize=16;" parent="1" vertex="1">
                    <mxGeometry x="200" y="420" width="60" height="30" as="geometry"/>
                </mxCell>
                <mxCell id="35" value="&lt;font style=&quot;font-size: 45px;&quot;&gt;MCD&lt;/font&gt;" style="text;html=1;strokeColor=none;fillColor=none;align=center;verticalAlign=middle;whiteSpace=wrap;rounded=0;strokeWidth=6;" parent="1" vertex="1">
                    <mxGeometry x="385" y="150" width="60" height="30" as="geometry"/>
                </mxCell>
            </root>
        </mxGraphModel>
    </diagram>
    <diagram id="cC04i70U8Fa8kFcAF3HZ" name="Page-2">
        <mxGraphModel dx="2212" dy="1720" grid="1" gridSize="10" guides="1" tooltips="1" connect="1" arrows="1" fold="1" page="1" pageScale="1" pageWidth="850" pageHeight="1100" math="0" shadow="0">
            <root>
                <mxCell id="Ali3T2aCaV0BDQmw8ZEg-0"/>
                <mxCell id="Ali3T2aCaV0BDQmw8ZEg-1" parent="Ali3T2aCaV0BDQmw8ZEg-0"/>
                <mxCell id="Ali3T2aCaV0BDQmw8ZEg-2" value="" style="whiteSpace=wrap;html=1;aspect=fixed;" parent="Ali3T2aCaV0BDQmw8ZEg-1" vertex="1">
                    <mxGeometry x="110" y="340" width="190" height="190" as="geometry"/>
                </mxCell>
                <mxCell id="Ali3T2aCaV0BDQmw8ZEg-3" value="" style="rounded=0;whiteSpace=wrap;html=1;fontSize=16;fillColor=#60a917;strokeColor=#2D7600;fontColor=#ffffff;" parent="Ali3T2aCaV0BDQmw8ZEg-1" vertex="1">
                    <mxGeometry x="110" y="300" width="190" height="40" as="geometry"/>
                </mxCell>
                <mxCell id="Ali3T2aCaV0BDQmw8ZEg-4" value="&lt;b&gt;instruments&lt;/b&gt;" style="text;strokeColor=none;fillColor=none;html=1;align=center;verticalAlign=middle;whiteSpace=wrap;rounded=0;fontSize=16;" parent="Ali3T2aCaV0BDQmw8ZEg-1" vertex="1">
                    <mxGeometry x="170" y="305" width="60" height="30" as="geometry"/>
                </mxCell>
                <mxCell id="Ali3T2aCaV0BDQmw8ZEg-5" value="&lt;u&gt;&lt;b&gt;id&lt;/b&gt;&lt;/u&gt;" style="text;strokeColor=none;fillColor=none;html=1;align=center;verticalAlign=middle;whiteSpace=wrap;rounded=0;fontSize=16;strokeWidth=6;" parent="Ali3T2aCaV0BDQmw8ZEg-1" vertex="1">
                    <mxGeometry x="110" y="350" width="60" height="30" as="geometry"/>
                </mxCell>
                <mxCell id="Ali3T2aCaV0BDQmw8ZEg-6" value="category_id" style="text;strokeColor=none;fillColor=none;html=1;align=center;verticalAlign=middle;whiteSpace=wrap;rounded=0;fontSize=16;" parent="Ali3T2aCaV0BDQmw8ZEg-1" vertex="1">
                    <mxGeometry x="140" y="410" width="60" height="30" as="geometry"/>
                </mxCell>
                <mxCell id="Ali3T2aCaV0BDQmw8ZEg-7" value="quantity" style="text;strokeColor=none;fillColor=none;html=1;align=center;verticalAlign=middle;whiteSpace=wrap;rounded=0;fontSize=16;" parent="Ali3T2aCaV0BDQmw8ZEg-1" vertex="1">
                    <mxGeometry x="130" y="440" width="60" height="30" as="geometry"/>
                </mxCell>
                <mxCell id="Ali3T2aCaV0BDQmw8ZEg-8" value="price" style="text;strokeColor=none;fillColor=none;html=1;align=center;verticalAlign=middle;whiteSpace=wrap;rounded=0;fontSize=16;" parent="Ali3T2aCaV0BDQmw8ZEg-1" vertex="1">
                    <mxGeometry x="120" y="470" width="60" height="30" as="geometry"/>
                </mxCell>
                <mxCell id="Ali3T2aCaV0BDQmw8ZEg-9" value="" style="whiteSpace=wrap;html=1;aspect=fixed;" parent="Ali3T2aCaV0BDQmw8ZEg-1" vertex="1">
                    <mxGeometry x="520" y="335" width="190" height="190" as="geometry"/>
                </mxCell>
                <mxCell id="Ali3T2aCaV0BDQmw8ZEg-10" value="" style="rounded=0;whiteSpace=wrap;html=1;fontSize=16;fillColor=#60a917;strokeColor=#2D7600;fontColor=#ffffff;" parent="Ali3T2aCaV0BDQmw8ZEg-1" vertex="1">
                    <mxGeometry x="520" y="300" width="190" height="40" as="geometry"/>
                </mxCell>
                <mxCell id="Ali3T2aCaV0BDQmw8ZEg-11" value="&lt;b&gt;categories&lt;/b&gt;" style="text;strokeColor=none;fillColor=none;html=1;align=center;verticalAlign=middle;whiteSpace=wrap;rounded=0;fontSize=16;gradientColor=default;" parent="Ali3T2aCaV0BDQmw8ZEg-1" vertex="1">
                    <mxGeometry x="585" y="305" width="60" height="30" as="geometry"/>
                </mxCell>
                <mxCell id="Ali3T2aCaV0BDQmw8ZEg-12" value="name" style="text;strokeColor=none;fillColor=none;html=1;align=center;verticalAlign=middle;whiteSpace=wrap;rounded=0;fontSize=16;" parent="Ali3T2aCaV0BDQmw8ZEg-1" vertex="1">
                    <mxGeometry x="120" y="380" width="60" height="30" as="geometry"/>
                </mxCell>
                <mxCell id="Ali3T2aCaV0BDQmw8ZEg-13" value="&lt;u&gt;&lt;b&gt;id&lt;/b&gt;&lt;/u&gt;" style="text;strokeColor=none;fillColor=none;html=1;align=center;verticalAlign=middle;whiteSpace=wrap;rounded=0;fontSize=16;" parent="Ali3T2aCaV0BDQmw8ZEg-1" vertex="1">
                    <mxGeometry x="525" y="350" width="60" height="30" as="geometry"/>
                </mxCell>
                <mxCell id="Ali3T2aCaV0BDQmw8ZEg-14" value="name" style="text;strokeColor=none;fillColor=none;html=1;align=center;verticalAlign=middle;whiteSpace=wrap;rounded=0;fontSize=16;" parent="Ali3T2aCaV0BDQmw8ZEg-1" vertex="1">
                    <mxGeometry x="540" y="380" width="60" height="30" as="geometry"/>
                </mxCell>
                <mxCell id="Ali3T2aCaV0BDQmw8ZEg-15" value="" style="whiteSpace=wrap;html=1;aspect=fixed;" parent="Ali3T2aCaV0BDQmw8ZEg-1" vertex="1">
                    <mxGeometry x="110" y="670" width="190" height="190" as="geometry"/>
                </mxCell>
                <mxCell id="Ali3T2aCaV0BDQmw8ZEg-16" value="" style="rounded=0;whiteSpace=wrap;html=1;fontSize=16;fillColor=#60a917;strokeColor=#2D7600;fontColor=#ffffff;" parent="Ali3T2aCaV0BDQmw8ZEg-1" vertex="1">
                    <mxGeometry x="110" y="630" width="190" height="40" as="geometry"/>
                </mxCell>
                <mxCell id="Ali3T2aCaV0BDQmw8ZEg-17" value="&lt;b&gt;admin&lt;/b&gt;" style="text;strokeColor=none;fillColor=none;html=1;align=center;verticalAlign=middle;whiteSpace=wrap;rounded=0;fontSize=16;" parent="Ali3T2aCaV0BDQmw8ZEg-1" vertex="1">
                    <mxGeometry x="165" y="635" width="60" height="30" as="geometry"/>
                </mxCell>
                <mxCell id="Ali3T2aCaV0BDQmw8ZEg-18" value="&lt;u&gt;&lt;b&gt;id&lt;/b&gt;&lt;/u&gt;" style="text;strokeColor=none;fillColor=none;html=1;align=center;verticalAlign=middle;whiteSpace=wrap;rounded=0;fontSize=16;" parent="Ali3T2aCaV0BDQmw8ZEg-1" vertex="1">
                    <mxGeometry x="115" y="690" width="60" height="30" as="geometry"/>
                </mxCell>
                <mxCell id="Ali3T2aCaV0BDQmw8ZEg-19" value="first_name" style="text;strokeColor=none;fillColor=none;html=1;align=center;verticalAlign=middle;whiteSpace=wrap;rounded=0;fontSize=16;" parent="Ali3T2aCaV0BDQmw8ZEg-1" vertex="1">
                    <mxGeometry x="145" y="720" width="60" height="30" as="geometry"/>
                </mxCell>
                <mxCell id="Ali3T2aCaV0BDQmw8ZEg-20" value="last_name" style="text;strokeColor=none;fillColor=none;html=1;align=center;verticalAlign=middle;whiteSpace=wrap;rounded=0;fontSize=16;" parent="Ali3T2aCaV0BDQmw8ZEg-1" vertex="1">
                    <mxGeometry x="145" y="750" width="60" height="30" as="geometry"/>
                </mxCell>
                <mxCell id="Ali3T2aCaV0BDQmw8ZEg-21" value="email" style="text;strokeColor=none;fillColor=none;html=1;align=center;verticalAlign=middle;whiteSpace=wrap;rounded=0;fontSize=16;" parent="Ali3T2aCaV0BDQmw8ZEg-1" vertex="1">
                    <mxGeometry x="125" y="780" width="60" height="30" as="geometry"/>
                </mxCell>
                <mxCell id="Ali3T2aCaV0BDQmw8ZEg-22" value="password" style="text;strokeColor=none;fillColor=none;html=1;align=center;verticalAlign=middle;whiteSpace=wrap;rounded=0;fontSize=16;" parent="Ali3T2aCaV0BDQmw8ZEg-1" vertex="1">
                    <mxGeometry x="135" y="810" width="60" height="30" as="geometry"/>
                </mxCell>
                <mxCell id="Ali3T2aCaV0BDQmw8ZEg-23" value="" style="endArrow=none;html=1;rounded=0;entryX=-0.021;entryY=0.159;entryDx=0;entryDy=0;entryPerimeter=0;exitX=1.014;exitY=0.429;exitDx=0;exitDy=0;exitPerimeter=0;" parent="Ali3T2aCaV0BDQmw8ZEg-1" source="Ali3T2aCaV0BDQmw8ZEg-2" target="Ali3T2aCaV0BDQmw8ZEg-9" edge="1">
                    <mxGeometry width="50" height="50" relative="1" as="geometry">
                        <mxPoint x="460" y="630" as="sourcePoint"/>
                        <mxPoint x="510" y="580" as="targetPoint"/>
                    </mxGeometry>
                </mxCell>
                <mxCell id="Ali3T2aCaV0BDQmw8ZEg-24" value="&lt;b&gt;MLD&lt;/b&gt;" style="text;html=1;strokeColor=none;fillColor=none;align=center;verticalAlign=middle;whiteSpace=wrap;rounded=0;strokeWidth=6;fontSize=45;" parent="Ali3T2aCaV0BDQmw8ZEg-1" vertex="1">
                    <mxGeometry x="370" y="210" width="60" height="30" as="geometry"/>
                </mxCell>
            </root>
        </mxGraphModel>
    </diagram>
</mxfile>